# ProBuilder 5.2.4
# https://unity3d.com/unity/features/worldbuilding/probuilder
# 3/31/2026 2:00:43 AM

mtllib ./chunk8.mtl
o chunk8

g Cube (4)
v 39 0 1
v -51 0 1
v 39 1 1
v -51 1 1
v -51 0 -2
v -51 1 -2
v 39 0 -2
v 39 1 -2
v 39 5 1
v -51 5 1
v 39 5 -2
v -51 5 -2
v 39 4.5 1
v -51 4.5 1
v 39 4.5 -2
v -51 4.5 -2

vt 39 0
vt -51 0
vt 39 1
vt -51 1
vt 1 0
vt -2 0
vt 1 1
vt -2 1
vt 51 0
vt -39 0
vt 51 1
vt -39 1
vt 2 0
vt -1 0
vt 2 1
vt -1 1
vt -39 -2
vt 51 -2
vt 39 -2
vt -51 -2
vt 39 4.5
vt -51 4.5
vt 2 4.5
vt -1 4.5
vt 1 4.5
vt -2 4.5
vt 51 4.5
vt -39 4.5
vt 39 5
vt -51 5
vt 2 5
vt -1 5
vt 1 5
vt -2 5
vt 51 5
vt -39 5

vn 0 0 1
vn -1 0 0
vn 0 0 -1
vn 1 0 0
vn 0 1 0
vn 0 -1 0

usemtl Lit
f 3/3/1 4/4/1 2/2/1 1/1/1
f 4/7/2 6/8/2 5/6/2 2/5/2
f 6/11/3 8/12/3 7/10/3 5/9/3
f 8/15/4 3/16/4 1/14/4 7/13/4
f 1/3/6 2/4/6 5/20/6 7/19/6

usemtl Dirt
f 13/21/1 14/22/1 4/4/1 3/3/1
f 15/23/4 13/24/4 3/16/4 8/15/4
f 14/25/2 16/26/2 6/8/2 4/7/2
f 16/27/3 15/28/3 8/12/3 6/11/3

usemtl GrassTexture_1
f 11/17/5 12/18/5 10/11/5 9/12/5
f 9/29/1 10/30/1 14/22/1 13/21/1
f 11/31/4 9/32/4 13/24/4 15/23/4
f 10/33/2 12/34/2 16/26/2 14/25/2
f 12/35/3 11/36/3 15/28/3 16/27/3

